<svg id="eFax" xmlns="http://www.w3.org/2000/svg" width="185.536" height="70.639" viewBox="0 0 185.536 70.639">
  <path id="Trazado_16879" data-name="Trazado 16879" d="M495.161,44.4a4.289,4.289,0,1,1-3.092,1.243A4.325,4.325,0,0,1,495.161,44.4Zm0,.685a3.658,3.658,0,1,0,3.658,3.658,3.658,3.658,0,0,0-3.658-3.658Zm-.829,6.163h-.757V46.417a8.9,8.9,0,0,1,1.37-.108,2.6,2.6,0,0,1,1.514.36,1.153,1.153,0,0,1,.432,1.009,1.189,1.189,0,0,1-.937,1.153h0c.432.072.721.469.829,1.153a3.892,3.892,0,0,0,.324,1.189h-.829a3.531,3.531,0,0,1-.324-1.225.9.9,0,0,0-1.045-.829h-.541Zm0-2.667h.577c.649,0,1.189-.216,1.189-.829s-.324-.829-1.189-.829h-.577Z" transform="translate(-313.913 -28.397)" fill="#202020"/>
  <g id="Grupo_6849" data-name="Grupo 6849">
    <path id="Trazado_16880" data-name="Trazado 16880" d="M76.37,15.678C76.37,6.019,69.81,0,58.6,0a38.167,38.167,0,0,0-7.28.757A8.943,8.943,0,0,0,45.555,5.37c-.937,2.09.144,3.46,2.415,2.991,16-3.136,23.751,6.487,17.227,21.48C61.846,37.554,55.43,45.591,47.61,51.9c-6.776,5.442-13.84,9.01-20.4,10.308C12.83,65.053,5.334,57.7,10.524,45.808c4.541-10.38,17.119-23.066,29.517-25.517,9.623-1.91,17.372,2.126,13.083,11.965C49.7,40.041,40.942,49.2,32.112,50.925c-6.884,1.37-12.326-1.081-9.515-7.532,2.162-5.01,7.46-10.812,12.506-11.857,3.28-.685,7.28-.144,5.911,3.136-.757,1.8-2.595,4.613-4.181,5.01s-1.73.216-1.838.18a1.118,1.118,0,0,1,.036-.18l.144-.216c1.586-2.126,1.37-4.073-.469-4.325s-4.613,1.3-6.235,3.424a9.571,9.571,0,0,0-2.307,5.226c-.288,3.388,2.595,4.685,7.785,3.424,6.091-1.478,12.4-7.352,15.317-14.308,3.352-7.965-3.1-10.6-10.848-9.01-10.2,2.09-20.183,12.4-24,21.156-4.865,11.209,3.5,15.678,14.38,13.515C42.708,55.791,56.259,42.167,61.3,30.6c2.919-6.631,2.415-12.11-1.333-15.425s-9.479-3.928-16.579-2.523c-7.929,1.55-16.615,6.235-24.508,13.119S5.622,39.933,2.343,47.429A25.261,25.261,0,0,0,0,57.3a12.109,12.109,0,0,0,3.676,9.154c2.451,2.307,7.208,4.109,12.542,4.181a38.311,38.311,0,0,0,7.677-.793c8.686-1.73,18.309-6.6,27.175-13.7,9.983-8.037,18.128-18.2,22.345-27.931A32.261,32.261,0,0,0,76.37,15.678Z" transform="translate(0 0)" fill="#eb2a31" fill-rule="evenodd"/>
    <path id="Trazado_16881" data-name="Trazado 16881" d="M192.36,83.729c0-2.991,1.009-7.136,3.748-7.136s3.388,3.712,3.388,7.136Zm16.615,7.677a30.611,30.611,0,0,0,.36-5.694c0-11.749-5.01-17.011-12.65-17.011-8.217,0-14.885,6.956-14.885,18.921,0,10.992,5.586,17.011,15.606,17.011a33.39,33.39,0,0,0,10.308-1.55l-1.333-7.821a23.5,23.5,0,0,1-6.992,1.153c-4.181,0-6.848-1.91-6.992-5.118Z" transform="translate(-116.278 -43.94)" fill="#202020"/>
    <path id="Trazado_16882" data-name="Trazado 16882" d="M265,34.7h21.949v9.515h-10.92V54.522h9.551V63.6h-9.551V82.526H265Z" transform="translate(-169.493 -22.194)" fill="#202020"/>
    <path id="Trazado_16883" data-name="Trazado 16883" d="M335.884,93.487a3.821,3.821,0,0,1-.216,1.37,3.407,3.407,0,0,1-3.28,2.054c-1.153,0-4.181-.5-4.181-3.46,0-3.676,4.469-5.55,7.641-5.622Zm10.776-9.226c0-6.812-1.189-15.461-13.335-15.461a26.562,26.562,0,0,0-12,2.811l1.91,7.352a13.984,13.984,0,0,1,7.641-2.162c2.847,0,4.613,1.55,4.613,3.5v.649c-7.893.072-17.588,4.361-17.588,13.7,0,6.235,5.226,10.236,10.74,10.236a9.7,9.7,0,0,0,8.037-3.892h.144l1.3,3.352h9.767c-.432-2.415-1.3-5.154-1.3-8Z" transform="translate(-203.327 -44.004)" fill="#202020"/>
    <path id="Trazado_16884" data-name="Trazado 16884" d="M413.129,70.5l1.622,5.658c.649,2.126,1.153,4.253,1.478,5.73h.144c.36-1.55.757-3.748,1.333-5.73l1.622-5.658h10.92L422.5,87.691l7.929,17.768H418.572L416.589,99.4c-.577-1.694-1.045-3.568-1.406-5.118h-.144c-.36,1.658-.865,3.5-1.3,5.19l-1.622,5.983H401.2l7.533-17.335L401.2,70.5Z" transform="translate(-256.605 -45.091)" fill="#202020"/>
  </g>
</svg>
