<svg id="icon_envelope-open" xmlns="http://www.w3.org/2000/svg" width="44.208" height="42.532" viewBox="0 0 44.208 42.532">
  <g id="Grupo_59870" data-name="Grupo 59870" transform="translate(17.084)">
    <path id="Trazado_57611" data-name="Trazado 57611" d="M3856.512,302l-5,2.622h10.009Z" transform="translate(-3851.507 -302)" fill="#3599e4"/>
  </g>
  <g id="Grupo_59871" data-name="Grupo 59871" transform="translate(1.075 28.491)">
    <path id="Trazado_57612" data-name="Trazado 57612" d="M3307.936,1283.449l14.016-14.033,13.979-.009,14.033,14.016Zm14.626-12.561-11.072,11.086,34.917-.021-11.086-11.072Z" transform="translate(-3307.936 -1269.408)" fill="#069"/>
  </g>
  <g id="Grupo_59872" data-name="Grupo 59872" transform="translate(30.166 15.33)">
    <path id="Trazado_57613" data-name="Trazado 57613" d="M4309.763,849.207l-14.042-14.042,14.042-12.638Zm-11.9-13.986,10.431,10.431V825.833Z" transform="translate(-4295.72 -822.527)" fill="#069"/>
  </g>
  <g id="Grupo_59873" data-name="Grupo 59873" transform="translate(8.098 3.644)">
    <path id="Trazado_57614" data-name="Trazado 57614" d="M3553.4,449.527l-7-6.293-.011-17.489,27.971-.017.011,17.489-6.993,6.3Zm-5.529-6.95,6.093,5.477,12.846-.008,6.087-5.484-.01-15.361-25.025.015Z" transform="translate(-3546.383 -425.728)" fill="#069"/>
  </g>
  <g id="Grupo_59874" data-name="Grupo 59874" transform="translate(0 15.33)">
    <path id="Trazado_57615" data-name="Trazado 57615" d="M3271.425,849.207v-26.68l14.042,12.638Zm1.473-23.373v19.818l10.431-10.431Z" transform="translate(-3271.425 -822.527)" fill="#069"/>
  </g>
  <g id="Grupo_59875" data-name="Grupo 59875" transform="translate(0.517 9.407)">
    <path id="Trazado_57616" data-name="Trazado 57616" d="M3295.551,621.4l-6.583,4.827,6.583,5.926Z" transform="translate(-3288.967 -621.403)" fill="#3599e4"/>
  </g>
  <g id="Grupo_59876" data-name="Grupo 59876" transform="translate(37.134 9.407)">
    <path id="Trazado_57617" data-name="Trazado 57617" d="M4532.309,632.156l6.583-5.926-6.583-4.827Z" transform="translate(-4532.309 -621.403)" fill="#3599e4"/>
  </g>
  <g id="Grupo_59877" data-name="Grupo 59877" transform="translate(14.894 8.137)">
    <path id="Trazado_57618" data-name="Trazado 57618" d="M3787.7,592.342a8.734,8.734,0,0,1-3.9.766,6.466,6.466,0,0,1-6.641-6.7,7.86,7.86,0,0,1,7.96-8.109,6.069,6.069,0,0,1,6.428,6.151c0,3.107-1.745,5.065-4.044,5.065a1.669,1.669,0,0,1-1.83-1.639h-.043a3.124,3.124,0,0,1-2.746,1.639c-1.383,0-2.384-1.022-2.384-2.767a4.86,4.86,0,0,1,4.98-4.959,5.977,5.977,0,0,1,2.533.532l-.638,3.938c-.213,1.255-.064,1.83.532,1.851.915.021,2.064-1.149,2.064-3.6a4.693,4.693,0,0,0-5.087-4.917c-3.256,0-6.108,2.554-6.108,6.619,0,3.554,2.277,5.576,5.449,5.576a6.917,6.917,0,0,0,3.086-.681Zm-1.894-8.79a2.621,2.621,0,0,0-.66-.085,2.81,2.81,0,0,0-2.512,3.022c0,.809.362,1.32,1.064,1.32.787,0,1.617-1,1.809-2.235Z" transform="translate(-3777.168 -578.295)" fill="#3599e4"/>
  </g>
</svg>
