<svg xmlns="http://www.w3.org/2000/svg" width="46.71" height="37.183" viewBox="0 0 46.71 37.183">
  <g id="icon_envelope-send" transform="translate(0 -52.214)">
    <g id="Grupo_59953" data-name="Grupo 59953" transform="translate(0 52.214)">
      <g id="Grupo_59952" data-name="Grupo 59952" transform="translate(0 0)">
        <path id="Trazado_57656" data-name="Trazado 57656" d="M37.9,52.214A8.813,8.813,0,0,0,29.313,63H1.648A1.65,1.65,0,0,0,0,64.645V80.659a.683.683,0,1,0,1.366,0V64.645a.282.282,0,0,1,.281-.281h.075L14.554,77.932,1.779,88.031H1.648a.282.282,0,0,1-.281-.281V83.811a.683.683,0,1,0-1.366,0v3.938A1.649,1.649,0,0,0,1.648,89.4H37.419a1.649,1.649,0,0,0,1.648-1.648V69.757A8.81,8.81,0,0,0,37.9,52.214ZM3.6,64.364H29.748a8.852,8.852,0,0,0,2.495,3.406L19.536,81.207h0Zm.379,23.667,11.514-9.1,3.089,3.267a.711.711,0,0,0,.06.057,1.393,1.393,0,0,0,1.775,0,.7.7,0,0,0,.061-.057l3.089-3.267,11.514,9.1ZM37.7,87.749a.282.282,0,0,1-.281.281h-.131l-12.775-10.1,8.851-9.359A8.752,8.752,0,0,0,37.7,69.831Zm.2-19.282a7.444,7.444,0,1,1,7.444-7.444A7.452,7.452,0,0,1,37.9,68.468Z" transform="translate(0 -52.214)" fill="#069"/>
        <path id="Trazado_57657" data-name="Trazado 57657" d="M367.29,102.346a.627.627,0,0,0-.4,0l-7.93,2.839a1.371,1.371,0,0,0-.349,2.4l2.259,1.657,1.657,2.259a1.368,1.368,0,0,0,1.1.56,1.384,1.384,0,0,0,1.292-.909l.34-.948a.683.683,0,1,0-1.284-.466l-.341.955s-.008,0-.01,0l-1.373-1.871,3.2-3.2-.414,1.157a.683.683,0,0,0,1.286.46s1.45-4.054,1.455-4.07a.635.635,0,0,0-.027-.4.754.754,0,0,0-.459-.433Zm-6,5.51-1.873-1.373s0-.008,0-.009l5.065-1.813Z" transform="translate(-325.383 -97.744)" fill="#3599e4"/>
      </g>
    </g>
  </g>
</svg>
