<svg xmlns="http://www.w3.org/2000/svg" width="43.664" height="40.236" viewBox="0 0 43.664 40.236">
  <g id="icon_data-server" transform="translate(0 0)">
    <g id="Grupo_31769" data-name="Grupo 31769" transform="translate(33.351 31.99)">
      <path id="Trazado_57553" data-name="Trazado 57553" d="M2358.245-2833.155a.985.985,0,0,1-.718-.275,1,1,0,0,1-.263-.743c.01-.517.007-1.047,0-1.561l0-.282a.934.934,0,0,1,.254-.685.894.894,0,0,1,.653-.255h5.806v3.75l-.7.034-.067,0c-.056,0-.119.007-.188.007h-1.277c-1.14,0-2.32,0-3.479.005Zm.506-2.32c0,.276,0,.556,0,.836,1,0,2.012,0,2.993,0h.755v-.833Zm-.576,0h0Z" transform="translate(-2357.264 2836.955)" fill="#069"/>
    </g>
    <g id="Grupo_31770" data-name="Grupo 31770" transform="translate(0 27.544)">
      <path id="Trazado_57554" data-name="Trazado 57554" d="M1610.465-2929.352H1571.2a2.2,2.2,0,0,1-2.2-2.2v-10.494h43.664v10.494A2.2,2.2,0,0,1,1610.465-2929.352Zm-39.984-11.212v9.013a.719.719,0,0,0,.718.718h39.267a.719.719,0,0,0,.718-.718v-9.013Z" transform="translate(-1569 2942.044)" fill="#069"/>
    </g>
    <g id="Grupo_31771" data-name="Grupo 31771" transform="translate(33.351 18.112)">
      <path id="Trazado_57555" data-name="Trazado 57555" d="M2358.245-3161.155a.983.983,0,0,1-.718-.275,1,1,0,0,1-.263-.743c.01-.517.007-1.047,0-1.56l0-.282a.934.934,0,0,1,.254-.685.893.893,0,0,1,.653-.255h5.806v3.751l-.7.034-.067,0c-.056,0-.119.007-.188.007h-1.277c-1.14,0-2.32,0-3.479,0Zm.506-2.32c0,.276,0,.556,0,.837,1,0,2.012,0,2.993,0h.755v-.834Zm-.576,0h0Z" transform="translate(-2357.264 3164.955)" fill="#3599e4"/>
    </g>
    <g id="Grupo_31772" data-name="Grupo 31772" transform="translate(0 13.666)">
      <path id="Trazado_57556" data-name="Trazado 57556" d="M1612.664-3257.352H1569v-12.693h43.664Zm-42.183-1.481h40.7v-9.731h-40.7Z" transform="translate(-1569 3270.045)" fill="#3599e4"/>
    </g>
    <g id="Grupo_31773" data-name="Grupo 31773" transform="translate(33.351 4.446)">
      <path id="Trazado_57557" data-name="Trazado 57557" d="M2358.245-3484.155a.984.984,0,0,1-.718-.275,1,1,0,0,1-.263-.743c.01-.517.007-1.047,0-1.56l0-.283a.933.933,0,0,1,.254-.685.893.893,0,0,1,.653-.255h5.806v3.751l-.7.033-.068,0c-.055,0-.118.007-.187.007h-1.265c-1.144,0-2.328,0-3.491.005Zm.506-2.32c0,.276,0,.556,0,.837,1.006,0,2.02,0,3,0h.743v-.834Zm-.576,0h0Z" transform="translate(-2357.264 3487.955)" fill="#069"/>
    </g>
    <g id="Grupo_31774" data-name="Grupo 31774" transform="translate(0 0)">
      <path id="Trazado_57558" data-name="Trazado 57558" d="M1612.664-3580.352H1569v-10.494a2.2,2.2,0,0,1,2.2-2.2h39.267a2.2,2.2,0,0,1,2.2,2.2Zm-42.183-1.481h40.7v-9.014a.719.719,0,0,0-.718-.718H1571.2a.719.719,0,0,0-.718.718Z" transform="translate(-1569 3593.045)" fill="#069"/>
    </g>
  </g>
</svg>
