<svg id="icon_sign" xmlns="http://www.w3.org/2000/svg" width="47.212" height="29.572" viewBox="0 0 47.212 29.572">
  <g id="Grupo_31792" data-name="Grupo 31792" transform="translate(0 0)">
    <path id="Trazado_57571" data-name="Trazado 57571" d="M205.262-1829.222h0c-6.994,0-34.853,0-41.327,0h0a3.31,3.31,0,0,1-2.063-.659,2.494,2.494,0,0,1-1.013-2.048q0-9.626,0-19.252v-4.741a2.686,2.686,0,0,1,2.241-2.823c.126-.029.184-.042,6.937-.047,4.049,0,9.385,0,14.639.009,5.741.009,10.944.025,14.652.042,2.1.01,3.737.021,4.876.033a8.935,8.935,0,0,1,2.182.085,2.484,2.484,0,0,1,1.673,2.4c0,.7,0,1.412,0,2.1q0,.446,0,.891,0,2.7,0,5.4c0,5.18,0,10.537.01,15.805a2.76,2.76,0,0,1-.773,2.01A2.836,2.836,0,0,1,205.262-1829.222Zm-19.521-1.6h19.521a1.244,1.244,0,0,0,.9-.322,1.19,1.19,0,0,0,.307-.878c-.014-5.27-.012-10.628-.01-15.81q0-2.7,0-5.4,0-.447,0-.893c0-.686,0-1.395,0-2.09a.906.906,0,0,0-.523-.868c-1.035-.044-9.292-.084-21.341-.1-10.766-.018-20.3-.012-21.2.013a1.1,1.1,0,0,0-.938,1.251v4.741q0,9.626,0,19.253a.893.893,0,0,0,.386.779,1.709,1.709,0,0,0,1.093.331h21.808Z" transform="translate(-160.858 1858.793)" fill="#069"/>
  </g>
  <g id="Grupo_31793" data-name="Grupo 31793" transform="translate(7.223 6.316)">
    <path id="Trazado_57572" data-name="Trazado 57572" d="M331.223-1711.4c-.03-.194-.047-.33-.072-.464a1.8,1.8,0,0,0-.742-1.332,2.8,2.8,0,0,0-2.352-.186.649.649,0,0,0-.176.1.57.57,0,0,0-.242.553,7.642,7.642,0,0,1,.034.978,2.53,2.53,0,0,1-3.015,2.482,4.027,4.027,0,0,1-3.491-3.153,12.99,12.99,0,0,1-.241-3.853,4.492,4.492,0,0,1,.876-2.314,2.423,2.423,0,0,1,.155-.2,1.528,1.528,0,0,1,2.452-.143,1.118,1.118,0,0,0,1.534-.057.3.3,0,0,0-.008-.494,3.337,3.337,0,0,0-.685-.483,4.159,4.159,0,0,0-3.468-.016,3.357,3.357,0,0,0-2.045,2.1,9.077,9.077,0,0,0,.156,6.589,5.073,5.073,0,0,0,5.791,3.094,4.345,4.345,0,0,0,3.485-3.459c.038-.2.057-.395.088-.618a1.1,1.1,0,0,1,.465.764c.057.427.077.861.094,1.292.014.379,0,.759,0,1.139a.328.328,0,0,0,.3.347,1.186,1.186,0,0,0,.957-.185,2.4,2.4,0,0,0,1.007-1.314c.1-.381.395-.525.666-.751.017.063.03.1.036.134.107.668.419.885,1.079.749.089-.019.18-.033.266-.061a2.524,2.524,0,0,1,1.146-.1c.552.081,1.116.169,1.542-.328.384.329.4.307.875.191a3.061,3.061,0,0,1,.9-.054c.552.033,1.1.158,1.653.146.8-.017,1.6-.108,2.4-.192a.507.507,0,0,0,.463-.687.71.71,0,0,0-.858-.527,10.894,10.894,0,0,1-1.174.149,9.625,9.625,0,0,1-1.585-.064,5.244,5.244,0,0,0-1.473-.279c0-.253,0-.479,0-.706,0-.326,0-.653-.017-.979a.677.677,0,0,0-.569-.625.571.571,0,0,0-.635.372c-.1.2-.182.4-.266.6-.1.231-.18.467-.278.7a1.312,1.312,0,0,1-1.048.814c-.276.048-.549.118-.823.177-.108.023-.217.044-.357.071.016-.2.029-.374.044-.547a.62.62,0,0,0-.93-.659,13.416,13.416,0,0,0-1.227.779C331.685-1711.744,331.472-1711.577,331.223-1711.4Z" transform="translate(-319.194 1720.344)" fill="#3599e4"/>
  </g>
  <g id="Grupo_31794" data-name="Grupo 31794" transform="translate(32.159 14.471)">
    <path id="Trazado_57573" data-name="Trazado 57573" d="M870.355-1530.319l-4.523-11.255L876.976-1537l.073.927-3.135.906,2.18,2.126-1.724,1.734-2.183-2.163-.906,3.044Zm-2.293-9.009,2.633,6.551.879-2.954-.034-.034.049-.014,0-.016.011.011,2.992-.864Z" transform="translate(-865.832 1541.574)" fill="#069"/>
  </g>
  <g id="Grupo_31795" data-name="Grupo 31795" transform="translate(5.638 21.373)">
    <path id="Trazado_57574" data-name="Trazado 57574" d="M298.287-1390.262q-6.544,0-13.089,0a2.655,2.655,0,0,0-.454.026.335.335,0,0,0-.293.375.328.328,0,0,0,.293.351,2.513,2.513,0,0,0,.384.036q13.157,0,26.314,0a2.437,2.437,0,0,0,.362-.033.333.333,0,0,0,.3-.386.334.334,0,0,0-.321-.35,3.053,3.053,0,0,0-.432-.019Z" transform="translate(-284.451 1390.262)" fill="#3599e4"/>
  </g>
</svg>
