<svg xmlns="http://www.w3.org/2000/svg" width="50" height="43.75" viewBox="0 0 50 43.75">
  <path id="icon_quote" d="M45.313,24.125H37.5v-6.25a6.256,6.256,0,0,1,6.25-6.25h.781a2.338,2.338,0,0,0,2.344-2.344V4.594A2.338,2.338,0,0,0,44.531,2.25H43.75A15.621,15.621,0,0,0,28.125,17.875V41.313A4.689,4.689,0,0,0,32.813,46h12.5A4.689,4.689,0,0,0,50,41.313v-12.5A4.689,4.689,0,0,0,45.313,24.125Zm-28.125,0H9.375v-6.25a6.256,6.256,0,0,1,6.25-6.25h.781A2.338,2.338,0,0,0,18.75,9.281V4.594A2.338,2.338,0,0,0,16.406,2.25h-.781A15.621,15.621,0,0,0,0,17.875V41.313A4.689,4.689,0,0,0,4.688,46h12.5a4.689,4.689,0,0,0,4.688-4.687v-12.5A4.689,4.689,0,0,0,17.188,24.125Z" transform="translate(0 -2.25)" fill="#3599e4"/>
</svg>
