<svg id="icon_phone" xmlns="http://www.w3.org/2000/svg" width="45.297" height="46.031" viewBox="0 0 45.297 46.031">
  <g id="Grupo_31787" data-name="Grupo 31787" transform="translate(0 0)">
    <g id="Grupo_31785" data-name="Grupo 31785">
      <path id="Trazado_57566" data-name="Trazado 57566" d="M2790.027-3554.279l1.292-1.436.367-.406c.256-.283.5-.549.735-.82.272-.311.549-.622.818-.924.668-.75,1.358-1.525,1.987-2.313a7.735,7.735,0,0,0,1.648-3.712c.044-.294.061-.6.08-.926.006-.1.012-.2.019-.309a21.084,21.084,0,0,1-4.616-4.427,18.078,18.078,0,0,1-3.591-8.328,17.342,17.342,0,0,1,1.895-10.941,19.863,19.863,0,0,1,3.612-4.837,22.528,22.528,0,0,1,4.829-3.578,23.916,23.916,0,0,1,8.419-2.807,26.394,26.394,0,0,1,8.116.1,24.632,24.632,0,0,1,7.666,2.707,20.583,20.583,0,0,1,8.594,8.675,17.325,17.325,0,0,1,1.953,8.563,17.733,17.733,0,0,1-3.39,9.91,21.029,21.029,0,0,1-4.369,4.51,23.6,23.6,0,0,1-5.449,3.07,24.707,24.707,0,0,1-7.644,1.736,26.423,26.423,0,0,1-5.551-.207,67.885,67.885,0,0,1-12.594,5.844c-.607.208-1.226.36-1.824.506-.26.063-.529.129-.789.2a1,1,0,0,1-.236.031l-.048,0Zm1.81-1.68h0Zm19.479-42.773a26.2,26.2,0,0,0-3.58.25,22.345,22.345,0,0,0-7.866,2.622,19.252,19.252,0,0,0-7.818,7.779,15.8,15.8,0,0,0-1.727,9.966,16.517,16.517,0,0,0,3.286,7.606,19.549,19.549,0,0,0,4.44,4.213,1.1,1.1,0,0,1,.512,1.041c-.015.172-.024.345-.035.527-.02.346-.04.7-.094,1.068a9.287,9.287,0,0,1-1.975,4.463c-.656.822-1.361,1.614-2.042,2.379l-.2.23.128-.043a66.3,66.3,0,0,0,12.332-5.726,1.4,1.4,0,0,1,.891-.2,24.82,24.82,0,0,0,5.33.21,23.133,23.133,0,0,0,7.158-1.624,20.367,20.367,0,0,0,9.128-7.036,16.18,16.18,0,0,0,3.1-9.042,15.769,15.769,0,0,0-1.778-7.793,19.038,19.038,0,0,0-7.953-8.016A23.008,23.008,0,0,0,2811.316-3598.732Z" transform="translate(-2788.562 3600.31)" fill="#069"/>
    </g>
    <g id="Grupo_31786" data-name="Grupo 31786" transform="translate(6.554 12.271)">
      <path id="Trazado_57567" data-name="Trazado 57567" d="M2945.6-3306.467h-.023a3.2,3.2,0,0,1-2.779-1.369,86.928,86.928,0,0,1-8.424-14.629,2.727,2.727,0,0,1-.078-2.268,5.078,5.078,0,0,1,3.526-3.036,1.406,1.406,0,0,1,1.8.932l.3.76c.536,1.362,1.09,2.771,1.628,4.161a1.336,1.336,0,0,1-.029,1.019,7.532,7.532,0,0,1-.526.954c.047.108.092.216.136.321a9.917,9.917,0,0,0,.5,1.068c.491.861,1.017,1.728,1.526,2.566q.27.445.539.891c.009.013.038.051.059.077.04.05.088.112.136.185a.707.707,0,0,0,.1.127.377.377,0,0,0,.048-.008,2.97,2.97,0,0,1,.977,0l.141.016a1.242,1.242,0,0,1,.81.449c.751.936,1.511,1.89,2.245,2.812l1.153,1.447a1.3,1.3,0,0,1,.121,1.5,2.86,2.86,0,0,1-.6.735,5.457,5.457,0,0,1-3.261,1.287Zm-7.435-19.761a3.516,3.516,0,0,0-2.419,2.114,1.157,1.157,0,0,0,.064,1,85.346,85.346,0,0,0,8.271,14.363,1.615,1.615,0,0,0,1.481.708,3.89,3.89,0,0,0,2.3-.916.991.991,0,0,0,.159-.182l-1.051-1.319c-.7-.884-1.431-1.8-2.15-2.694a1.789,1.789,0,0,0-.462-.02,1.625,1.625,0,0,1-1.791-.793c-.011-.017-.035-.047-.058-.076a2.216,2.216,0,0,1-.173-.242q-.268-.444-.537-.887c-.514-.847-1.046-1.723-1.548-2.6a11.161,11.161,0,0,1-.582-1.238c-.065-.155-.126-.3-.191-.446a1.262,1.262,0,0,1,.148-1.289,5.273,5.273,0,0,0,.4-.706c-.523-1.351-1.062-2.721-1.583-4.047Zm5.806,11.52Zm-3.9-6.64h0Z" transform="translate(-2934.086 3327.834)" fill="#3599e4"/>
    </g>
  </g>
  <g id="Grupo_31788" data-name="Grupo 31788" transform="translate(17.009 13.587)">
    <path id="Trazado_57568" data-name="Trazado 57568" d="M3168.022-3293.925a2.155,2.155,0,0,1-1.442-1.637,2.207,2.207,0,0,1,1.106-2.522,4.353,4.353,0,0,1,2.315-.53,4.583,4.583,0,0,1,1.966.4,2,2,0,0,1,1.291,1.957,2.134,2.134,0,0,1-1.362,1.95c-.047.022-.1.042-.181.08.1.047.163.082.232.113a2.377,2.377,0,0,1,1.536,2.071,2.446,2.446,0,0,1-1.289,2.46,3.94,3.94,0,0,1-1.705.521,5.384,5.384,0,0,1-2.795-.393,2.41,2.41,0,0,1-1.335-2.934,2.361,2.361,0,0,1,1.3-1.385C3167.764-3293.816,3167.867-3293.857,3168.022-3293.925Zm1.91,3.334a4.267,4.267,0,0,0,.587-.128.953.953,0,0,0,.693-.805.993.993,0,0,0-.454-1.089,10.83,10.83,0,0,0-1.065-.522c-.673-.283-.716-.257-1.034.421a1.146,1.146,0,0,0-.06.145A1.413,1.413,0,0,0,3169.932-3290.591Zm.617-4.149a1.928,1.928,0,0,0,.484-1.3.943.943,0,0,0-.69-.945,1.481,1.481,0,0,0-.95.017.849.849,0,0,0-.591,1.043.852.852,0,0,0,.476.6C3169.692-3295.117,3170.119-3294.937,3170.549-3294.74Z" transform="translate(-3166.24 3298.614)" fill="#3599e4"/>
  </g>
  <g id="Grupo_31789" data-name="Grupo 31789" transform="translate(33.141 13.62)">
    <path id="Trazado_57569" data-name="Trazado 57569" d="M3531.579-3293.11c-.1.741-.141,1.495-.3,2.221a2.94,2.94,0,0,1-3.088,2.527,5.232,5.232,0,0,1-1.206-.1,2.906,2.906,0,0,1-2.287-2.385,10.1,10.1,0,0,1-.2-3.331,7.384,7.384,0,0,1,.243-1.391,2.937,2.937,0,0,1,2.942-2.319,5.6,5.6,0,0,1,1.361.107,2.862,2.862,0,0,1,2.186,2.214,8.452,8.452,0,0,1,.285,2.449Zm-2.322-.015-.042-.008c-.023-.441-.019-.886-.076-1.323a5.452,5.452,0,0,0-.269-1.151.87.87,0,0,0-.9-.585.911.911,0,0,0-.878.586,2.585,2.585,0,0,0-.185.6,11.656,11.656,0,0,0-.071,3.271,4.025,4.025,0,0,0,.3,1.143.907.907,0,0,0,1.19.479,1.088,1.088,0,0,0,.675-.917C3529.114-3291.727,3529.174-3292.427,3529.256-3293.125Z" transform="translate(-3524.446 3297.892)" fill="#3599e4"/>
  </g>
  <g id="Grupo_31790" data-name="Grupo 31790" transform="translate(25.124 13.62)">
    <path id="Trazado_57570" data-name="Trazado 57570" d="M3353.575-3293.1c-.1.741-.143,1.494-.306,2.22a2.94,2.94,0,0,1-3.094,2.52,5.284,5.284,0,0,1-1.206-.1,2.9,2.9,0,0,1-2.277-2.368,10.034,10.034,0,0,1-.2-3.331,7.385,7.385,0,0,1,.246-1.413,2.937,2.937,0,0,1,2.947-2.312,5.617,5.617,0,0,1,1.361.11,2.855,2.855,0,0,1,2.175,2.2,8.37,8.37,0,0,1,.289,2.47Zm-2.324-.01-.065-.007c0-.24.013-.481,0-.72a4.955,4.955,0,0,0-.3-1.76.921.921,0,0,0-.9-.594.916.916,0,0,0-.9.595,2.413,2.413,0,0,0-.176.554,11.653,11.653,0,0,0-.074,3.315,4.38,4.38,0,0,0,.31,1.162.831.831,0,0,0,.833.505.9.9,0,0,0,.84-.5,1.544,1.544,0,0,0,.187-.5C3351.1-3291.741,3351.172-3292.425,3351.251-3293.108Z" transform="translate(-3346.442 3297.887)" fill="#3599e4"/>
  </g>
</svg>
