<svg id="icon_mobile-efax" xmlns="http://www.w3.org/2000/svg" width="28.806" height="48.507" viewBox="0 0 28.806 48.507">
  <g id="Grupo_59865" data-name="Grupo 59865" transform="translate(0)">
    <path id="Trazado_57606" data-name="Trazado 57606" d="M1241.931,368.507h-19.059a4.882,4.882,0,0,1-4.873-4.878V324.884a4.883,4.883,0,0,1,4.871-4.884h19.059a4.886,4.886,0,0,1,4.875,4.882V363.63a4.883,4.883,0,0,1-4.874,4.877Zm-19.059-47.034a3.415,3.415,0,0,0-3.4,3.412v38.744a3.415,3.415,0,0,0,3.4,3.406h19.056a3.417,3.417,0,0,0,3.4-3.406V324.883a3.42,3.42,0,0,0-3.4-3.41Z" transform="translate(-1218 -320)" fill="#069"/>
  </g>
  <g id="Grupo_59866" data-name="Grupo 59866" transform="translate(3.525 5.418)">
    <path id="Trazado_57607" data-name="Trazado 57607" d="M1359.439,542.38h-21.756v-38.4h21.756Zm-20.284-1.472h18.811V505.456h-18.811Z" transform="translate(-1337.683 -503.983)" fill="#069"/>
  </g>
  <g id="Grupo_59867" data-name="Grupo 59867" transform="translate(7.69 2.402)">
    <g id="Grupo_31807" data-name="Grupo 31807" transform="translate(0 0.386)">
      <g id="Trazado_57577" data-name="Trazado 57577">
        <path id="Trazado_57608" data-name="Trazado 57608" d="M1488.507,415.714H1479.1V414.69h9.4v1.024Z" transform="translate(-1479.101 -414.69)" fill="#3599e4"/>
      </g>
    </g>
    <g id="Grupo_31808" data-name="Grupo 31808" transform="translate(11.63)">
      <g id="Trazado_57578" data-name="Trazado 57578">
        <path id="Trazado_57609" data-name="Trazado 57609" d="M1875.782,402.469a.9.9,0,1,1-.9-.9h0A.9.9,0,0,1,1875.782,402.469Z" transform="translate(-1873.985 -401.572)" fill="#3599e4"/>
      </g>
    </g>
  </g>
  <g id="Grupo_59868" data-name="Grupo 59868" transform="translate(8.059 18.75)">
    <path id="Trazado_57610" data-name="Trazado 57610" d="M1504.347,959.276c0-1.607-1.09-2.607-2.948-2.606a6.347,6.347,0,0,0-1.208.126,1.484,1.484,0,0,0-.957.769c-.153.349.025.575.4.5,2.661-.521,3.946,1.079,2.862,3.566a10.193,10.193,0,0,1-2.924,3.661,8.093,8.093,0,0,1-3.391,1.714c-2.391.474-3.634-.75-2.77-2.725a7.917,7.917,0,0,1,4.9-4.242c1.6-.318,2.889.351,2.176,1.988a5.652,5.652,0,0,1-3.491,3.1c-1.143.229-2.047-.178-1.581-1.249a3.52,3.52,0,0,1,2.08-1.969c.545-.112,1.209-.024.98.521-.124.3-.433.767-.7.833a.637.637,0,0,1-.305.027.187.187,0,0,1,0-.033c0-.007.011-.016.025-.036.264-.356.229-.676-.078-.717a1.324,1.324,0,0,0-1.035.571,1.66,1.66,0,0,0-.38.869c-.049.564.433.778,1.291.568a4.127,4.127,0,0,0,2.543-2.375c.557-1.325-.514-1.76-1.8-1.5a6.421,6.421,0,0,0-3.985,3.509c-.809,1.864.579,2.606,2.389,2.245a8.564,8.564,0,0,0,5.4-4.644,2.1,2.1,0,0,0-.223-2.563,3.265,3.265,0,0,0-2.757-.422,9.183,9.183,0,0,0-4.067,2.18,10.634,10.634,0,0,0-2.748,3.6,4.166,4.166,0,0,0-.392,1.64,2.006,2.006,0,0,0,.612,1.521,2.989,2.989,0,0,0,2.08.694,6.367,6.367,0,0,0,1.273-.129A10.941,10.941,0,0,0,1500.14,966a12.936,12.936,0,0,0,3.714-4.638A5.282,5.282,0,0,0,1504.347,959.276Z" transform="translate(-1491.66 -956.671)" fill="#eb2a31" fill-rule="evenodd"/>
  </g>
</svg>
